<svg width="42" height="43" viewBox="0 0 42 43" fill="none" xmlns="http://www.w3.org/2000/svg">
<rect y="0.5" width="42" height="42" rx="6" fill="#3A3A3A" fill-opacity="0.1"/>
<path d="M18.5502 25.15L27.0252 16.675C27.2252 16.475 27.4585 16.375 27.7252 16.375C27.9918 16.375 28.2252 16.475 28.4252 16.675C28.6252 16.875 28.7252 17.1127 28.7252 17.388C28.7252 17.6633 28.6252 17.9007 28.4252 18.1L19.2502 27.3C19.0502 27.5 18.8168 27.6 18.5502 27.6C18.2835 27.6 18.0502 27.5 17.8502 27.3L13.5502 23C13.3502 22.8 13.2542 22.5627 13.2622 22.288C13.2702 22.0133 13.3745 21.7757 13.5752 21.575C13.7758 21.3743 14.0135 21.2743 14.2882 21.275C14.5628 21.2757 14.8002 21.3757 15.0002 21.575L18.5502 25.15Z" fill="black"/>
</svg>
