<svg width="31" height="32" viewBox="0 0 31 32" fill="none" xmlns="http://www.w3.org/2000/svg">
<path d="M14.5387 5.10734C14.8822 4.23546 16.1171 4.23546 16.4607 5.10734L19.1047 11.8111C19.1565 11.9432 19.235 12.0632 19.3352 12.1636C19.4354 12.2641 19.5553 12.3428 19.6872 12.3949L26.3923 15.039C27.2642 15.3825 27.2642 16.6174 26.3923 16.961L19.6885 19.605C19.5564 19.6568 19.4364 19.7353 19.336 19.8355C19.2355 19.9357 19.1568 20.0556 19.1047 20.1875L16.4607 26.8926C16.1171 27.7645 14.8822 27.7645 14.5387 26.8926L11.8946 20.1888C11.8428 20.0567 11.7643 19.9367 11.6641 19.8363C11.5639 19.7358 11.4441 19.6571 11.3121 19.605L4.60703 16.961C3.73516 16.6174 3.73516 15.3825 4.60703 15.039L11.3108 12.3949C11.4429 12.3431 11.5629 12.2646 11.6633 12.1644C11.7638 12.0642 11.8425 11.9444 11.8946 11.8124L14.5387 5.10734Z" stroke="black" stroke-width="1.9375" stroke-linecap="round" stroke-linejoin="round"/>
<path d="M6.7806 8.89585C7.67231 8.89585 8.39518 8.17298 8.39518 7.28127C8.39518 6.38956 7.67231 5.66669 6.7806 5.66669C5.88889 5.66669 5.16602 6.38956 5.16602 7.28127C5.16602 8.17298 5.88889 8.89585 6.7806 8.89585Z" fill="black"/>
<path d="M24.5417 26.3333C25.255 26.3333 25.8333 25.755 25.8333 25.0417C25.8333 24.3283 25.255 23.75 24.5417 23.75C23.8283 23.75 23.25 24.3283 23.25 25.0417C23.25 25.755 23.8283 26.3333 24.5417 26.3333Z" fill="black"/>
</svg> 