<svg width="129" height="129" viewBox="0 0 129 129" fill="none" xmlns="http://www.w3.org/2000/svg">
<rect width="129" height="129" rx="16" fill="url(#paint0_linear_137_1080)"/>
<mask id="mask0_137_1080" style="mask-type:alpha" maskUnits="userSpaceOnUse" x="34" y="23" width="62" height="84">
<path d="M63.9008 52.0466C64.3213 50.9796 65.8326 50.9796 66.2531 52.0466L69.489 60.251C69.5524 60.4126 69.6484 60.5595 69.7711 60.6824C69.8937 60.8054 70.0404 60.9017 70.2019 60.9655L78.4078 64.2014C79.4749 64.6219 79.4749 66.1331 78.4078 66.5536L70.2035 69.7895C70.0418 69.8529 69.895 69.9489 69.772 70.0716C69.6491 70.1943 69.5527 70.3409 69.489 70.5025L66.2531 78.7084C65.8326 79.7754 64.3213 79.7754 63.9008 78.7084L60.665 70.504C60.6015 70.3424 60.5055 70.1955 60.3829 70.0726C60.2602 69.9496 60.1135 69.8533 59.952 69.7895L51.7461 66.5536C50.679 66.1331 50.679 64.6219 51.7461 64.2014L59.9504 60.9655C60.1121 60.9021 60.259 60.8061 60.3819 60.6834C60.5048 60.5607 60.6012 60.4141 60.665 60.2525L63.9008 52.0466Z" fill="white"/>
<path fill-rule="evenodd" clip-rule="evenodd" d="M64.9864 39.1444C56.7389 39.1444 50.0529 45.8303 50.0529 54.0779V56.9031V64.9753H49.6719C41.6072 64.9039 35.393 60.0012 33.9999 51.6773C35.2254 35.6352 48.6303 23 64.9864 23C81.4722 23 94.96 35.8365 95.9998 52.0598H79.7847C78.7995 44.7667 72.5495 39.1444 64.9864 39.1444Z" fill="white"/>
<path fill-rule="evenodd" clip-rule="evenodd" d="M65.0136 90.8062C73.2611 90.8062 79.9471 84.1203 79.9471 75.8727V73.0475V64.9753H80.3281C88.3928 65.0466 94.607 69.9494 96.0001 78.2732C94.7746 94.3153 81.3697 106.951 65.0136 106.951C48.5278 106.951 35.04 94.114 34.0002 77.8908H50.2153C51.2005 85.1839 57.4505 90.8062 65.0136 90.8062Z" fill="white"/>
</mask>
<g mask="url(#mask0_137_1080)">
<rect x="22.699" y="17.3495" width="84.7578" height="95.2516" fill="white"/>
</g>
<defs>
<linearGradient id="paint0_linear_137_1080" x1="64.5" y1="0" x2="64.5" y2="129" gradientUnits="userSpaceOnUse">
<stop stop-color="#FD5A32"/>
<stop offset="1" stop-color="#FED36B"/>
</linearGradient>
</defs>
</svg>
