<svg width="280" height="87" viewBox="0 0 280 87" fill="none" xmlns="http://www.w3.org/2000/svg">
<path d="M73.7828 66.1229V24.2689H101.511V31.4911H82.5423V41.5268H100.438V48.3719H82.5423V58.9007H101.511V66.1229H73.7828ZM107.835 66.1229V24.2689H115.492L138.261 57.0153L130.922 51.4754H134.577V24.2689H143.307V66.1229H135.708L112.91 33.1734L120.249 38.7133H116.565V66.1229H107.835ZM165.583 66.848C162.277 66.848 159.386 66.3646 156.911 65.3977C154.455 64.4116 152.521 63.0097 151.11 61.192C149.698 59.3551 148.905 57.1507 148.731 54.5789L148.702 54.1149H156.969L157.027 54.4339C157.22 55.5168 157.703 56.4546 158.477 57.2474C159.27 58.0208 160.295 58.6299 161.551 59.0747C162.808 59.5001 164.23 59.7128 165.815 59.7128C167.439 59.7128 168.832 59.5001 169.992 59.0747C171.171 58.6299 172.08 58.0112 172.718 57.2184C173.376 56.4062 173.704 55.4684 173.704 54.4049V54.3759C173.704 52.9643 173.144 51.8622 172.022 51.0694C170.92 50.2572 169.064 49.5804 166.453 49.039L162.045 48.1689C157.926 47.3374 154.822 45.9355 152.734 43.9632C150.646 41.9908 149.601 39.4287 149.601 36.2769V36.2479C149.601 33.6955 150.288 31.4718 151.661 29.5768C153.034 27.6625 154.919 26.1832 157.317 25.139C159.714 24.0755 162.46 23.5438 165.554 23.5438C168.783 23.5438 171.568 24.0465 173.908 25.052C176.267 26.0575 178.104 27.4788 179.418 29.3157C180.733 31.1527 181.458 33.2894 181.594 35.7258L181.623 36.2769H173.356L173.327 35.9288C173.173 34.8266 172.757 33.8888 172.08 33.1154C171.403 32.3226 170.504 31.7135 169.383 31.2881C168.281 30.8627 167.004 30.6499 165.554 30.6499C164.065 30.6499 162.779 30.8723 161.696 31.3171C160.614 31.7425 159.782 32.3322 159.202 33.0864C158.641 33.8405 158.361 34.7203 158.361 35.7258V35.7548C158.361 37.0697 158.922 38.1332 160.043 38.9453C161.165 39.7575 162.924 40.4052 165.322 40.8887L169.76 41.7878C172.68 42.3679 175.077 43.1704 176.953 44.1952C178.829 45.22 180.211 46.5156 181.101 48.0819C182.01 49.6288 182.464 51.4948 182.464 53.6798V53.7088C182.464 56.3966 181.787 58.7266 180.434 60.699C179.099 62.652 177.166 64.1699 174.633 65.2527C172.119 66.3162 169.102 66.848 165.583 66.848ZM205.378 66.848C201.801 66.848 198.697 66.2002 196.067 64.9047C193.457 63.6091 191.426 61.8011 189.976 59.4808C188.545 57.141 187.83 54.4242 187.83 51.3304V24.2689H196.589V50.5473C196.589 52.3456 196.928 53.9118 197.604 55.2461C198.301 56.5609 199.296 57.5858 200.592 58.3206C201.907 59.0554 203.502 59.4227 205.378 59.4227C207.253 59.4227 208.839 59.0554 210.135 58.3206C211.449 57.5858 212.445 56.5609 213.122 55.2461C213.799 53.9118 214.137 52.3456 214.137 50.5473V24.2689H222.897V51.3304C222.897 54.4242 222.181 57.141 220.75 59.4808C219.339 61.8011 217.318 63.6091 214.688 64.9047C212.078 66.2002 208.974 66.848 205.378 66.848ZM245.172 66.848C241.866 66.848 238.975 66.3646 236.5 65.3977C234.044 64.4116 232.111 63.0097 230.699 61.192C229.287 59.3551 228.495 57.1507 228.321 54.5789L228.292 54.1149H236.558L236.616 54.4339C236.809 55.5168 237.293 56.4546 238.066 57.2474C238.859 58.0208 239.884 58.6299 241.141 59.0747C242.398 59.5001 243.819 59.7128 245.404 59.7128C247.029 59.7128 248.421 59.5001 249.581 59.0747C250.761 58.6299 251.669 58.0112 252.308 57.2184C252.965 56.4062 253.294 55.4684 253.294 54.4049V54.3759C253.294 52.9643 252.733 51.8622 251.611 51.0694C250.509 50.2572 248.653 49.5804 246.043 49.039L241.634 48.1689C237.515 47.3374 234.412 45.9355 232.323 43.9632C230.235 41.9908 229.191 39.4287 229.191 36.2769V36.2479C229.191 33.6955 229.877 31.4718 231.25 29.5768C232.623 27.6625 234.508 26.1832 236.906 25.139C239.304 24.0755 242.05 23.5438 245.143 23.5438C248.373 23.5438 251.157 24.0465 253.497 25.052C255.856 26.0575 257.693 27.4788 259.008 29.3157C260.323 31.1527 261.048 33.2894 261.183 35.7258L261.212 36.2769H252.946L252.917 35.9288C252.762 34.8266 252.346 33.8888 251.669 33.1154C250.993 32.3226 250.094 31.7135 248.972 31.2881C247.87 30.8627 246.594 30.6499 245.143 30.6499C243.654 30.6499 242.369 30.8723 241.286 31.3171C240.203 31.7425 239.371 32.3322 238.791 33.0864C238.231 33.8405 237.95 34.7203 237.95 35.7258V35.7548C237.95 37.0697 238.511 38.1332 239.632 38.9453C240.754 39.7575 242.514 40.4052 244.911 40.8887L249.349 41.7878C252.269 42.3679 254.667 43.1704 256.542 44.1952C258.418 45.22 259.801 46.5156 260.69 48.0819C261.599 49.6288 262.053 51.4948 262.053 53.6798V53.7088C262.053 56.3966 261.376 58.7266 260.023 60.699C258.689 62.652 256.755 64.1699 254.222 65.2527C251.708 66.3162 248.692 66.848 245.172 66.848Z" fill="#FD5B33"/>
<mask id="mask0_137_1176" style="mask-type:alpha" maskUnits="userSpaceOnUse" x="0" y="0" width="66" height="87">
<path d="M31.9879 30.1017C32.4237 28.996 33.9898 28.996 34.4256 30.1017L37.779 38.6041C37.8447 38.7717 37.9442 38.9239 38.0713 39.0513C38.1985 39.1787 38.3504 39.2785 38.5178 39.3446L47.0218 42.698C48.1276 43.1338 48.1276 44.6999 47.0218 45.1357L38.5195 48.4891C38.3519 48.5549 38.1997 48.6544 38.0723 48.7815C37.9449 48.9086 37.8451 49.0606 37.779 49.228L34.4256 57.732C33.9898 58.8378 32.4237 58.8378 31.9879 57.732L28.6344 49.2296C28.5687 49.0621 28.4692 48.9099 28.3421 48.7825C28.215 48.6551 28.063 48.5552 27.8956 48.4891L19.3916 45.1357C18.2858 44.6999 18.2858 43.1338 19.3916 42.698L27.894 39.3446C28.0615 39.2789 28.2137 39.1794 28.3411 39.0523C28.4685 38.9251 28.5684 38.7731 28.6344 38.6058L31.9879 30.1017Z" fill="white"/>
<path fill-rule="evenodd" clip-rule="evenodd" d="M33.1126 16.7308C24.5655 16.7308 17.6366 23.6596 17.6366 32.2067V35.1346V43.5H17.2271C8.87724 43.4206 2.44434 38.3419 1.00024 29.7226C2.26852 13.0961 16.1612 0 33.1126 0C50.1973 0 64.1749 13.3028 65.2525 30.1154H48.4484C47.4274 22.5573 40.9505 16.7308 33.1126 16.7308Z" fill="white"/>
<path fill-rule="evenodd" clip-rule="evenodd" d="M33.1408 70.2691C41.688 70.2691 48.6168 63.3403 48.6168 54.7931V51.8653V43.4999H48.9969C57.361 43.5676 63.8074 48.6481 65.2532 57.2775C63.9848 73.9039 50.0922 86.9999 33.1408 86.9999C16.0562 86.9999 2.07859 73.6972 1.00094 56.8846H17.805C18.8261 64.4426 25.303 70.2691 33.1408 70.2691ZM17.6649 43.5V43.4999H0.934113V43.5H17.6649Z" fill="white"/>
</mask>
<g mask="url(#mask0_137_1176)">
<rect x="-10.7122" y="-5.8559" width="87.8365" height="98.7115" fill="url(#paint0_linear_137_1176)"/>
</g>
<defs>
<linearGradient id="paint0_linear_137_1176" x1="16.0571" y1="23.0047" x2="39.4802" y2="100.803" gradientUnits="userSpaceOnUse">
<stop stop-color="#FD5A32"/>
<stop offset="1" stop-color="#FFF67B"/>
</linearGradient>
</defs>
</svg>
