<svg width="24" height="25" viewBox="0 0 24 25" fill="none" xmlns="http://www.w3.org/2000/svg">
<path d="M12.3445 2.96839C12.18 2.90042 11.9991 2.88273 11.8246 2.91754C11.6501 2.95236 11.4899 3.03812 11.3641 3.16399L6.2641 8.26399C6.10512 8.4346 6.01857 8.66025 6.02269 8.89341C6.0268 9.12658 6.12126 9.34904 6.28615 9.51393C6.45105 9.67883 6.67351 9.77328 6.90667 9.7774C7.13983 9.78151 7.36549 9.69496 7.5361 9.53599L11.1001 5.97199V15.2C11.1001 15.4387 11.1949 15.6676 11.3637 15.8364C11.5325 16.0052 11.7614 16.1 12.0001 16.1C12.2388 16.1 12.4677 16.0052 12.6365 15.8364C12.8053 15.6676 12.9001 15.4387 12.9001 15.2V5.97199L16.4641 9.53599C16.5465 9.62441 16.6459 9.69533 16.7563 9.74452C16.8667 9.79372 16.9858 9.82017 17.1067 9.8223C17.2275 9.82443 17.3475 9.8022 17.4596 9.75694C17.5717 9.71167 17.6735 9.6443 17.7589 9.55883C17.8444 9.47337 17.9118 9.37157 17.957 9.2595C18.0023 9.14744 18.0245 9.0274 18.0224 8.90656C18.0203 8.78572 17.9938 8.66654 17.9446 8.55614C17.8954 8.44574 17.8245 8.34638 17.7361 8.26399L12.6361 3.16399C12.5517 3.08142 12.4529 3.01511 12.3445 2.96839ZM4.5001 11.3C4.73879 11.3 4.96771 11.3948 5.13649 11.5636C5.30528 11.7324 5.4001 11.9613 5.4001 12.2V17C5.4001 18.1592 6.3409 19.1 7.5001 19.1H16.5001C17.0571 19.1 17.5912 18.8787 17.985 18.4849C18.3788 18.0911 18.6001 17.5569 18.6001 17V12.2C18.6001 11.9613 18.6949 11.7324 18.8637 11.5636C19.0325 11.3948 19.2614 11.3 19.5001 11.3C19.7388 11.3 19.9677 11.3948 20.1365 11.5636C20.3053 11.7324 20.4001 11.9613 20.4001 12.2V17C20.4001 18.0343 19.9892 19.0263 19.2578 19.7577C18.5264 20.4891 17.5344 20.9 16.5001 20.9H7.5001C6.46575 20.9 5.47377 20.4891 4.74238 19.7577C4.01099 19.0263 3.6001 18.0343 3.6001 17V12.2C3.6001 11.9613 3.69492 11.7324 3.8637 11.5636C4.03248 11.3948 4.2614 11.3 4.5001 11.3Z" fill="black"/>
</svg>
