<svg width="49" height="49" viewBox="0 0 49 49" fill="none" xmlns="http://www.w3.org/2000/svg">
<rect width="49" height="49" rx="5.71667" fill="#EFEFEF"/>
<path d="M24.5387 14.1073C24.8822 13.2355 26.1171 13.2355 26.4607 14.1073L29.1047 20.8111C29.1565 20.9432 29.235 21.0632 29.3352 21.1636C29.4354 21.2641 29.5553 21.3428 29.6872 21.3949L36.3923 24.039C37.2642 24.3825 37.2642 25.6174 36.3923 25.961L29.6885 28.605C29.5564 28.6568 29.4364 28.7353 29.336 28.8355C29.2355 28.9357 29.1568 29.0556 29.1047 29.1875L26.4607 35.8926C26.1171 36.7645 24.8822 36.7645 24.5387 35.8926L21.8946 29.1888C21.8428 29.0567 21.7643 28.9367 21.6641 28.8363C21.5639 28.7358 21.4441 28.6571 21.3121 28.605L14.607 25.961C13.7352 25.6174 13.7352 24.3825 14.607 24.039L21.3108 21.3949C21.4429 21.3431 21.5629 21.2646 21.6633 21.1644C21.7638 21.0642 21.8425 20.9444 21.8946 20.8124L24.5387 14.1073Z" stroke="black" stroke-width="1.9375" stroke-linecap="round" stroke-linejoin="round"/>
<path d="M16.7806 17.8959C17.6723 17.8959 18.3952 17.173 18.3952 16.2813C18.3952 15.3896 17.6723 14.6667 16.7806 14.6667C15.8889 14.6667 15.166 15.3896 15.166 16.2813C15.166 17.173 15.8889 17.8959 16.7806 17.8959Z" fill="black"/>
<path d="M34.5417 35.3333C35.255 35.3333 35.8333 34.755 35.8333 34.0417C35.8333 33.3283 35.255 32.75 34.5417 32.75C33.8283 32.75 33.25 33.3283 33.25 34.0417C33.25 34.755 33.8283 35.3333 34.5417 35.3333Z" fill="black"/>
</svg>
